<?xml version="1.0" standalone="no"?>
<!DOCTYPE svg PUBLIC "-//W3C//DTD SVG 20010904//EN"
 "http://www.w3.org/TR/2001/REC-SVG-20010904/DTD/svg10.dtd">
<svg version="1.0" xmlns="http://www.w3.org/2000/svg"
 width="1000.000000pt" height="600.000000pt" viewBox="0 0 1000.000000 600.000000"
 preserveAspectRatio="xMidYMid meet">

<g transform="translate(0.000000,600.000000) scale(0.100000,-0.100000)"
fill="#000000" stroke="none">
<path d="M1140 3581 c-178 -63 -302 -135 -340 -197 -14 -21 -20 -49 -20 -87 0
-45 6 -63 33 -103 104 -157 406 -252 1007 -320 224 -25 739 -30 975 -10 173
15 536 61 560 71 11 5 -112 -3 -185 -11 -25 -3 -169 -5 -320 -5 -399 0 -775
36 -1200 112 -225 41 -312 68 -420 134 -143 87 -191 184 -140 284 20 41 105
123 152 147 15 8 28 17 28 19 0 10 -28 3 -130 -34z"/>
<path d="M2345 3529 c-188 -12 -642 -66 -632 -75 2 -2 103 2 225 8 352 19 776
-7 1212 -73 361 -54 449 -74 568 -130 108 -50 178 -102 213 -158 64 -100 24
-195 -126 -300 -70 -49 -57 -49 94 6 172 61 293 133 331 196 26 42 26 116 0
166 -64 126 -296 229 -652 290 -383 66 -863 93 -1233 70z"/>
<path d="M4558 3160 c-2 -138 -1 -255 0 -260 2 -6 46 -10 103 -10 l99 0 0 84
c0 67 3 85 16 90 9 3 119 6 245 6 244 0 327 10 417 52 66 32 102 88 88 141
-14 59 -116 121 -223 137 -37 5 -220 10 -405 10 l-337 0 -3 -250z m714 176
c29 -14 41 -27 50 -58 16 -55 -9 -104 -72 -135 -42 -22 -56 -23 -267 -23
l-223 0 0 113 c0 63 3 117 7 120 3 4 110 6 237 5 202 -3 236 -5 268 -22z"/>
<path d="M5760 3150 l0 -260 105 0 105 0 -2 258 -3 257 -102 3 -103 3 0 -261z"/>
<path d="M6297 3404 c-4 -4 -7 -96 -7 -204 0 -216 -2 -209 66 -243 120 -61
544 -83 762 -39 124 25 156 36 190 66 21 19 22 24 22 223 l0 204 -102 -3 -103
-3 0 -198 c0 -230 5 -217 -103 -238 -131 -25 -351 -12 -474 27 l-48 15 -2 197
-3 197 -95 3 c-53 1 -99 0 -103 -4z"/>
<path d="M7650 3150 l0 -260 100 0 100 0 0 235 c0 186 3 235 13 235 7 0 31
-30 53 -67 22 -38 85 -143 139 -235 l100 -168 107 0 108 0 23 38 c25 38 90
149 193 329 33 56 65 103 72 103 9 0 12 -54 12 -235 l0 -235 105 0 105 0 0
260 0 260 -174 -1 c-96 -1 -179 -4 -184 -8 -6 -4 -63 -96 -127 -206 -142 -247
-133 -231 -137 -225 -5 6 -115 196 -148 255 -12 22 -40 70 -61 106 l-39 66
-128 6 c-70 4 -151 7 -179 7 l-53 0 0 -260z"/>
</g>
</svg>
